<?xml version="1.0" encoding="utf-8"?>
<!-- Generator: Adobe Illustrator 25.2.0, SVG Export Plug-In . SVG Version: 6.00 Build 0)  -->
<svg version="1.1" id="Layer_1" xmlns="http://www.w3.org/2000/svg" xmlns:xlink="http://www.w3.org/1999/xlink" x="0px" y="0px"
	 viewBox="0 0 20.5 20.5" style="enable-background:new 0 0 20.5 20.5;" xml:space="preserve">
<style type="text/css">
	.st0{fill:#990000;}
	.st1{fill:#FFFFFF;}
</style>
<circle class="st0" cx="10.2" cy="10.2" r="10"/>
<path class="st1" d="M10.9,15.8L10,13.7c0.9-0.3,1.7-0.7,2.4-1.2L10.9,15.8 M6.8,10.5L4.7,9.6l3.3-1.5C7.6,8.8,7.2,9.6,6.8,10.5
	 M15.5,5c0,0-2.7-1.2-5.8,1.9c-1.2,1.2-1.9,2.5-2.4,3.7c-0.2,0.4,0,0.9,0.3,1.2l1.2,1.2c0.3,0.3,0.7,0.4,1.2,0.3
	c1.2-0.4,2.5-1.2,3.7-2.4C16.7,7.7,15.5,5,15.5,5 M11.7,8.8c-0.4-0.4-0.4-1.1,0-1.5c0.4-0.4,1.1-0.4,1.5,0c0.4,0.4,0.4,1.1,0,1.5
	S12.1,9.2,11.7,8.8 M8.6,12.7l-0.8-0.8L8.6,12.7 M7.2,15.6l2-2c-0.2,0-0.4-0.1-0.5-0.2l-2.2,2.2H7.2 M4.9,15.6h0.8l2.6-2.6l-0.8-0.8
	l-2.6,2.6V15.6 M4.9,14.1l2.2-2.2c-0.1-0.2-0.2-0.3-0.2-0.5l-2,2V14.1z"/>
</svg>
