<?xml version="1.0" encoding="utf-8"?>
<!-- Generator: Adobe Illustrator 25.2.0, SVG Export Plug-In . SVG Version: 6.00 Build 0)  -->
<svg version="1.1" id="Layer_1" xmlns="http://www.w3.org/2000/svg" xmlns:xlink="http://www.w3.org/1999/xlink" x="0px" y="0px"
	 viewBox="0 0 20.5 20.5" style="enable-background:new 0 0 20.5 20.5;" xml:space="preserve">
<style type="text/css">
	.st0{fill:#990000;}
	.st1{fill:#FFFFFF;}
</style>
<circle class="st0" cx="10.2" cy="10.2" r="10"/>
<path class="st1" d="M10.2,5.6c1.2,0,2.1,1,2.1,2.2s-0.9,2.2-2.1,2.2s-2.1-1-2.1-2.2S9.1,5.6,10.2,5.6 M6.1,7.2
	c0.3,0,0.6,0.1,0.9,0.3C6.9,8.4,7.1,9.3,7.7,10c-0.3,0.6-0.9,1-1.6,1c-1,0-1.8-0.9-1.8-1.9S5.1,7.2,6.1,7.2 M14.4,7.2
	c1,0,1.8,0.9,1.8,1.9s-0.8,1.9-1.8,1.9c-0.7,0-1.3-0.4-1.6-1c0.5-0.7,0.8-1.6,0.7-2.5C13.8,7.3,14.1,7.2,14.4,7.2 M6.4,13.8
	c0-1.3,1.7-2.4,3.9-2.4s3.9,1.1,3.9,2.4v1.1H6.4V13.8 M3.1,14.9v-1c0-0.9,1.1-1.6,2.7-1.9c-0.4,0.4-0.6,1-0.6,1.7v1.1H3.1
	 M17.4,14.9h-2.1v-1.1c0-0.7-0.2-1.3-0.6-1.7c1.5,0.2,2.7,1,2.7,1.9V14.9z"/>
</svg>
