<?xml version="1.0" encoding="utf-8"?>
<!-- Generator: Adobe Illustrator 25.2.0, SVG Export Plug-In . SVG Version: 6.00 Build 0)  -->
<svg version="1.1" id="Logo" xmlns="http://www.w3.org/2000/svg" xmlns:xlink="http://www.w3.org/1999/xlink" x="0px" y="0px"
	 viewBox="0 0 862.9 276.7" style="enable-background:new 0 0 862.9 276.7;" xml:space="preserve">
<style type="text/css">
	.st0{fill:#636363;}
	.st1{fill:#990000;}
	.st2{fill:#353535;}
	.st3{fill:#222222;}
</style>
<g id="Letters">
	<g>
		<path class="st0" d="M279.5,66.9c0,8.1-3.2,14.9-9.6,20.6s-14.1,8.5-23,8.5c-9,0-16.6-2.8-22.9-8.5c-6.3-5.7-9.5-12.6-9.5-20.6
			c0-1.9,0.3-4.3,1-7.3c-3.7-0.3-6-0.5-7-0.5c-12.4,0-18.6,5.2-18.6,15.5c0,5.3,3.6,17.1,10.9,35.5c7.3,18.4,10.9,32.8,10.9,43.2
			c0,22.3-12.3,39-37,50.2c-18.4,8.2-39.9,12.3-64.6,12.3c-22.5,0-42.5-3.1-59.9-9.4c-24.5-8.8-36.7-22.3-36.7-40.5
			c0-26.5,22.6-39.8,67.7-39.8h46.5l8.9,19.5h-36.3c-9.1,0-17,1.6-23.8,4.8c-8.8,4.2-13.2,10.3-13.2,18.4c0,9.2,6.1,16.4,18.2,21.6
			c9.4,4,19.4,6,30,6c13.5,0,24.8-3,33.8-8.9c10.5-6.8,15.7-16.6,15.7-29.4c0-8.8-3.3-21.4-10-37.8S141,91.1,141,82
			c0-29.7,25.3-44.6,75.8-44.6H247c8.3,0,15.7,2.8,22.2,8.4C276.2,51.7,279.5,58.7,279.5,66.9z"/>
		<path class="st0" d="M453.7,126.1c-3.3,13-13,19.5-29.3,19.5H348c2.7,1.8,4.9,5.1,6.6,9.8s2.4,8.9,2.1,12.4
			c-1.1,13.6-7.1,24.3-17.9,32c-10.3,7.4-23.8,11.1-40.3,11.2c-19.2,0.2-34-3.6-44.3-11.4c-9.2-6.8-13.8-15.8-13.8-27
			c0-2.2,0.2-4.4,0.6-6.6c2.1-12.3,8.2-21.9,18.3-28.9c10.7-7.4,25.1-11.1,43-11.1L453.7,126.1L453.7,126.1z M320.7,145.6h-28
			l-11,31.2c-0.6,1.6-0.9,3.2-0.9,4.6c0,7,6.5,10.5,19.5,10.5c1.5,0,2.9,0,4-0.1L320.7,145.6z"/>
		<path class="st0" d="M575.4,126.1c-2.6,13-13.1,19.5-31.5,19.5h-81.2c7.5,6.9,10.9,19.1,10.3,36.5c-0.8,20.6-11.8,38.9-33,55.1
			c-19,14.6-37.3,21.6-54.8,21.1c-3.3-0.1-6.3-1.4-8.9-3.9s-3.9-5.5-3.9-9c0-1.4,0.3-2.8,0.9-4.3l30.9-87.3
			c-4.2-1.1-7.7-3.3-10.5-6.6c-3.3-3.6-4.9-7.7-4.9-12.3c0-2.8,0.7-5.8,2-8.8h22.9l22.8-64.2h43.9l-27,64.2
			C453.4,126.1,575.4,126.1,575.4,126.1z M437,201c2.1-6.2,3.2-11.7,3.2-16.4c0-6.7-2.2-11.7-6.5-15c-6.7,15.6-17.1,39.1-31.2,70.3
			c6.6-3.4,13.5-9.3,20.8-17.6C430.3,214.3,434.9,207.2,437,201z"/>
		<path class="st0" d="M703.7,126.1c-2.6,13-13.1,19.5-31.5,19.5H591c7.5,6.9,10.9,19.1,10.3,36.5c-0.8,20.6-11.8,38.9-33,55.1
			c-19,14.6-37.3,21.6-54.8,21.1c-3.3-0.1-6.3-1.4-8.9-3.9s-3.9-5.5-3.9-9c0-1.4,0.3-2.8,0.9-4.3l30.9-87.3
			c-4.2-1.1-7.7-3.3-10.5-6.6c-3.3-3.6-4.9-7.7-4.9-12.3c0-2.8,0.7-5.8,2-8.8H542l22.8-64.2h43.9l-27,64.2
			C581.7,126.1,703.7,126.1,703.7,126.1z M565.3,201c2.1-6.2,3.2-11.7,3.2-16.4c0-6.7-2.2-11.7-6.5-15
			c-6.7,15.6-17.1,39.1-31.2,70.3c6.6-3.4,13.5-9.3,20.8-17.6C558.6,214.3,563.2,207.2,565.3,201z"/>
		<path class="st0" d="M740.8,189.6c-2.1,7.2-6.5,12.5-13.2,15.9c-4.8,2.4-10,3.7-15.6,3.7h-48.2c-11.6,0-17.5-4.9-17.5-14.6
			c0-2.8,0.6-5.7,1.7-8.9l21.2-59.4h44.3L691,189.6H740.8z M732.1,76c0,8.1-3.2,15.1-9.5,20.8c-6.3,5.7-13.9,8.5-22.8,8.5
			c-9,0-16.7-2.8-23-8.5s-9.5-12.6-9.5-20.8c0-8.1,3.2-14.9,9.5-20.6s14-8.5,23-8.5c8.9,0,16.5,2.8,22.8,8.5
			C728.9,61.1,732.1,68,732.1,76z"/>
		<path class="st0" d="M849.4,189.6c-3.8,13-14,19.5-30.5,19.5h-62.3c-12,0-18.1-4.2-18.1-12.7c0-2.1,0.4-4.4,1.3-6.8l15.5-43.9h-20
			l7.7-19.5c14.2-3.7,24.8-8.3,31.7-14c7.8-6.4,16.2-18.1,25-34.9h23.8l-17.2,49h31.5c-5,13-15.3,19.5-30.8,19.5h-8.1l-15.3,43.9
			h65.8V189.6z"/>
	</g>
	<g>
		<path class="st1" d="M279.5,66.9c0,8.1-3.2,14.9-9.6,20.6s-14.1,8.5-23,8.5c-9,0-16.6-2.8-22.9-8.5c-6.3-5.7-9.5-12.6-9.5-20.6
			c0-1.9,0.3-4.3,1-7.3c-3.7-0.3-6-0.5-7-0.5c-12.4,0-18.6,5.2-18.6,15.5c0,5.3,3.6,17.1,10.9,35.5c7.3,18.4,10.9,32.8,10.9,43.2
			c0,22.3-12.3,39-37,50.2c-18.4,8.2-39.9,12.3-64.6,12.3c-22.5,0-42.5-3.1-59.9-9.4c-24.5-8.8-36.7-22.3-36.7-40.5
			c0-26.5,22.6-39.8,67.7-39.8h46.5l8.9,19.5h-36.3c-9.1,0-17,1.6-23.8,4.8c-8.8,4.2-13.2,10.3-13.2,18.4c0,9.2,6.1,16.4,18.2,21.6
			c9.4,4,19.4,6,30,6c13.5,0,24.8-3,33.8-8.9c10.5-6.8,15.7-16.6,15.7-29.4c0-8.8-3.3-21.4-10-37.8S141,91.1,141,82
			c0-29.7,25.3-44.6,75.8-44.6H247c8.3,0,15.7,2.8,22.2,8.4C276.2,51.7,279.5,58.7,279.5,66.9z"/>
		<path class="st2" d="M453.7,126.1c-3.3,13-13,19.5-29.3,19.5H348c2.7,1.8,4.9,5.1,6.6,9.8s2.4,8.9,2.1,12.4
			c-1.1,13.6-7.1,24.3-17.9,32c-10.3,7.4-23.8,11.1-40.3,11.2c-19.2,0.2-34-3.6-44.3-11.4c-9.2-6.8-13.8-15.8-13.8-27
			c0-2.2,0.2-4.4,0.6-6.6c2.1-12.3,8.2-21.9,18.3-28.9c10.7-7.4,25.1-11.1,43-11.1L453.7,126.1L453.7,126.1z M320.7,145.6h-28
			l-11,31.2c-0.6,1.6-0.9,3.2-0.9,4.6c0,7,6.5,10.5,19.5,10.5c1.5,0,2.9,0,4-0.1L320.7,145.6z"/>
		<path class="st2" d="M575.4,126.1c-2.6,13-13.1,19.5-31.5,19.5h-81.2c7.5,6.9,10.9,19.1,10.3,36.5c-0.8,20.6-11.8,38.9-33,55.1
			c-19,14.6-37.3,21.6-54.8,21.1c-3.3-0.1-6.3-1.4-8.9-3.9s-3.9-5.5-3.9-9c0-1.4,0.3-2.8,0.9-4.3l30.9-87.3
			c-4.2-1.1-7.7-3.3-10.5-6.6c-3.3-3.6-4.9-7.7-4.9-12.3c0-2.8,0.7-5.8,2-8.8h22.9l22.8-64.2h43.9l-27,64.2
			C453.4,126.1,575.4,126.1,575.4,126.1z M437,201c2.1-6.2,3.2-11.7,3.2-16.4c0-6.7-2.2-11.7-6.5-15c-6.7,15.6-17.1,39.1-31.2,70.3
			c6.6-3.4,13.5-9.3,20.8-17.6C430.3,214.3,434.9,207.2,437,201z"/>
		<path class="st2" d="M703.7,126.1c-2.6,13-13.1,19.5-31.5,19.5H591c7.5,6.9,10.9,19.1,10.3,36.5c-0.8,20.6-11.8,38.9-33,55.1
			c-19,14.6-37.3,21.6-54.8,21.1c-3.3-0.1-6.3-1.4-8.9-3.9s-3.9-5.5-3.9-9c0-1.4,0.3-2.8,0.9-4.3l30.9-87.3
			c-4.2-1.1-7.7-3.3-10.5-6.6c-3.3-3.6-4.9-7.7-4.9-12.3c0-2.8,0.7-5.8,2-8.8H542l22.8-64.2h43.9l-27,64.2
			C581.7,126.1,703.7,126.1,703.7,126.1z M565.3,201c2.1-6.2,3.2-11.7,3.2-16.4c0-6.7-2.2-11.7-6.5-15
			c-6.7,15.6-17.1,39.1-31.2,70.3c6.6-3.4,13.5-9.3,20.8-17.6C558.6,214.3,563.2,207.2,565.3,201z"/>
		<path class="st2" d="M740.8,189.6c-2.1,7.2-6.5,12.5-13.2,15.9c-4.8,2.4-10,3.7-15.6,3.7h-48.2c-11.6,0-17.5-4.9-17.5-14.6
			c0-2.8,0.6-5.7,1.7-8.9l21.2-59.4h44.3L691,189.6H740.8z M732.1,76c0,8.1-3.2,15.1-9.5,20.8c-6.3,5.7-13.9,8.5-22.8,8.5
			c-9,0-16.7-2.8-23-8.5s-9.5-12.6-9.5-20.8c0-8.1,3.2-14.9,9.5-20.6s14-8.5,23-8.5c8.9,0,16.5,2.8,22.8,8.5
			C728.9,61.1,732.1,68,732.1,76z"/>
		<path class="st2" d="M849.4,189.6c-3.8,13-14,19.5-30.5,19.5h-62.3c-12,0-18.1-4.2-18.1-12.7c0-2.1,0.4-4.4,1.3-6.8l15.5-43.9h-20
			l7.7-19.5c14.2-3.7,24.8-8.3,31.7-14c7.8-6.4,16.2-18.1,25-34.9h23.8l-17.2,49h31.5c-5,13-15.3,19.5-30.8,19.5h-8.1l-15.3,43.9
			h65.8V189.6z"/>
	</g>
</g>
<path id="Line_Down" class="st3" d="M332.3,272.3h-300l0,0c0-8.8,7.2-16,16-16h300l0,0C348.3,265.2,341.1,272.3,332.3,272.3z"/>
</svg>
